# Blender v3.2.0 OBJ File: ''
# www.blender.org
mtllib spot_mini.mtl
o spot
v 0.167666 -0.441498 0.206478
v 0.332720 -0.392847 0.219103
v 0.172382 -0.501014 0.428180
v 0.284155 -0.427757 0.610609
v 0.112084 -0.467922 0.631924
v 0.099416 -0.186703 -0.192356
v 0.086034 0.033416 -0.210080
v 0.300499 -0.051282 -0.088417
v 0.164036 0.238290 -0.050460
v 0.247829 -0.033437 0.903106
v 0.121077 -0.318386 0.933035
v 0.332513 -0.535502 0.890442
v 0.334421 -0.320076 0.799456
v 0.396483 -0.103987 0.199276
v 0.133520 0.311152 0.275007
v 0.231290 0.268730 0.178319
v 0.117629 0.321789 0.023673
v 0.265218 0.119001 0.455516
v 0.102089 0.221903 0.489689
v 0.098577 0.129608 0.882362
v 0.157312 0.188558 0.737168
v 0.339890 -0.030471 0.719870
v 0.340882 0.232937 -0.446219
v 0.279954 0.369628 -0.146322
v 0.138944 0.141887 -0.229229
v 0.168666 0.464770 0.032259
v 0.194489 0.111124 -0.479464
v 0.259871 0.200881 -0.615718
v 0.276699 0.338491 -0.639703
v 0.358095 -0.622713 -0.080194
v 0.337669 -0.619227 0.140296
v 0.219480 -0.722337 0.147814
v 0.231371 -0.747361 0.823488
v 0.146880 -0.657010 0.919666
v 0.082286 -0.670673 0.793054
v 0.187061 -0.702163 0.668740
v 0.326261 -0.643881 0.757027
v 0.042451 -0.413161 0.802716
v 0.102020 -0.693946 0.030626
v 0.140351 -0.304568 -0.110279
v 0.214174 -0.678227 -0.104681
v 0.083881 -0.409661 0.025595
v 0.255277 0.570164 -0.483479
v 0.271223 0.567469 -0.129298
v 0.209820 0.765585 -0.212899
v 0.485881 0.707372 -0.157797
v 0.406635 0.645077 -0.291304
v 0.409616 0.743647 -0.294063
v 0.000000 0.201167 0.825474
v 0.000000 0.286044 0.349536
v 0.000000 0.337849 0.040349
v 0.000000 0.324296 -0.667827
v 0.168599 0.746779 -0.444714
v 0.000000 0.847607 -0.386318
v 0.000000 -0.388109 -0.059048
v 0.000000 0.115152 -0.263206
v 0.000000 0.105065 -0.545142
v 0.242639 0.733970 -0.329214
v 0.279205 0.638832 -0.346259
v 0.157067 0.802026 -0.343290
v 0.081743 0.824058 -0.275511
v 0.114022 0.809088 -0.208612
v 0.236133 0.900874 -0.285311
v 0.175897 0.921180 -0.324255
v 0.177629 0.965703 -0.234522
v 0.000000 -0.544378 0.433923
v 0.079672 -0.069042 0.990655
v 0.000000 -0.072325 1.037103
v 0.000000 -0.344318 0.920838
v -0.167666 -0.441498 0.206478
v -0.172382 -0.501014 0.428180
v -0.332720 -0.392847 0.219103
v -0.112084 -0.467922 0.631924
v -0.284155 -0.427757 0.610609
v -0.086034 0.033416 -0.210080
v -0.300499 -0.051282 -0.088417
v -0.164036 0.238290 -0.050460
v -0.099416 -0.186703 -0.192356
v -0.247829 -0.033437 0.903106
v -0.332513 -0.535502 0.890442
v -0.121077 -0.318386 0.933035
v -0.334421 -0.320076 0.799456
v -0.396483 -0.103987 0.199276
v -0.133520 0.311152 0.275007
v -0.117629 0.321789 0.023673
v -0.231290 0.268730 0.178319
v -0.102089 0.221903 0.489689
v -0.265218 0.119001 0.455516
v -0.098577 0.129608 0.882362
v -0.157312 0.188558 0.737168
v -0.339890 -0.030471 0.719870
v -0.340882 0.232937 -0.446219
v -0.138944 0.141887 -0.229229
v -0.279954 0.369628 -0.146322
v -0.168666 0.464770 0.032259
v -0.194489 0.111124 -0.479464
v -0.259871 0.200881 -0.615718
v -0.276699 0.338491 -0.639703
v -0.358095 -0.622713 -0.080194
v -0.219480 -0.722337 0.147814
v -0.337669 -0.619227 0.140296
v -0.187061 -0.702163 0.668740
v -0.082286 -0.670673 0.793054
v -0.231371 -0.747361 0.823488
v -0.146880 -0.657010 0.919666
v -0.326261 -0.643881 0.757027
v -0.042451 -0.413161 0.802716
v -0.102020 -0.693946 0.030626
v -0.214174 -0.678227 -0.104681
v -0.140351 -0.304568 -0.110279
v -0.083881 -0.409661 0.025595
v -0.255277 0.570164 -0.483479
v -0.271223 0.567469 -0.129298
v -0.209820 0.765585 -0.212899
v -0.485881 0.707372 -0.157797
v -0.406635 0.645077 -0.291304
v -0.409616 0.743647 -0.294063
v -0.168599 0.746779 -0.444714
v -0.114022 0.809088 -0.208612
v -0.279205 0.638832 -0.346259
v -0.242639 0.733970 -0.329214
v -0.157067 0.802026 -0.343290
v -0.081743 0.824058 -0.275511
v -0.236133 0.900874 -0.285311
v -0.175897 0.921180 -0.324255
v -0.177629 0.965703 -0.234522
v -0.079672 -0.069042 0.990655
v 0.386630 -0.310129 0.008277
v 0.000000 0.771047 -0.103472
v -0.386630 -0.310129 0.008277
vt 0.828233 0.651984
vt 0.828441 0.666501
vt 0.792015 0.660166
vt 0.753737 0.670715
vt 0.752730 0.654341
vt 0.885860 0.640546
vt 0.939077 0.660231
vt 0.880523 0.678923
vt 0.945629 0.722769
vt 0.679568 0.742245
vt 0.705837 0.657291
vt 0.724396 0.672130
vt 0.733135 0.690870
vt 0.836500 0.700744
vt 0.896959 0.794632
vt 0.885688 0.756064
vt 0.952743 0.752955
vt 0.816384 0.773393
vt 0.829664 0.827835
vt 0.667213 0.823924
vt 0.738085 0.821931
vt 0.742648 0.741118
vt 0.189847 0.206827
vt 0.129718 0.202175
vt 0.198586 0.152494
vt 0.108033 0.167237
vt 0.092342 0.209304
vt 0.228446 0.189491
vt 0.224802 0.213886
vt 0.222596 0.233005
vt 0.137696 0.923712
vt 0.175665 0.942346
vt 0.156623 0.953663
vt 0.880317 0.942664
vt 0.850837 0.946618
vt 0.861902 0.929772
vt 0.894879 0.928829
vt 0.881020 0.970974
vt 0.907443 0.948508
vt 0.963417 0.953814
vt 0.813993 0.935245
vt 0.902415 0.905864
vt 0.971784 0.934087
vt 0.797409 0.967875
vt 0.124881 0.956385
vt 0.041603 0.926374
vt 0.118182 0.938804
vt 0.118323 0.877715
vt 0.169390 0.972183
vt 0.061645 0.955784
vt 0.202924 0.274854
vt 0.111886 0.241873
vt 0.087687 0.485860
vt 0.033646 0.556806
vt 0.084957 0.528977
vt 0.074691 0.555702
vt 0.096329 0.551361
vt 0.690798 0.876595
vt 0.889062 0.837764
vt 0.181865 0.727787
vt 0.268705 0.802013
vt 0.211060 0.810623
vt 0.268973 0.233489
vt 0.223809 0.321105
vt 0.268708 0.351121
vt 0.858529 0.646452
vt 0.855215 0.628261
vt 0.973062 0.639039
vt 0.269241 0.190655
vt 0.270236 0.138838
vt 0.098961 0.577915
vt 0.065752 0.593150
vt 0.214090 0.352154
vt 0.228987 0.477738
vt 0.268704 0.485885
vt 0.218368 0.499015
vt 0.171785 0.327304
vt 0.174462 0.290905
vt 0.029431 0.417953
vt 0.204143 0.406148
vt 0.155308 0.414876
vt 0.172675 0.451080
vt 0.172895 0.424677
vt 0.116721 0.448952
vt 0.154743 0.431065
vt 0.674149 0.551344
vt 0.764055 0.497948
vt 0.767176 0.579655
vt 0.886801 0.559672
vt 0.963472 0.496785
vt 0.575921 0.705795
vt 0.502444 0.743983
vt 0.502007 0.691479
vt 0.698374 0.634981
vt 0.834532 0.347804
vt 0.797650 0.340913
vt 0.834216 0.333359
vt 0.759781 0.348047
vt 0.759754 0.331687
vt 0.941618 0.336278
vt 0.885058 0.319564
vt 0.946313 0.275037
vt 0.891468 0.358584
vt 0.682034 0.261928
vt 0.730275 0.330102
vt 0.712741 0.346013
vt 0.738052 0.311533
vt 0.840556 0.299100
vt 0.896604 0.204659
vt 0.953040 0.246692
vt 0.886666 0.243247
vt 0.827774 0.171955
vt 0.817147 0.227082
vt 0.665058 0.180490
vt 0.736446 0.180206
vt 0.745341 0.261138
vt 0.348508 0.206788
vt 0.342223 0.152753
vt 0.409992 0.203884
vt 0.433150 0.169459
vt 0.447706 0.212260
vt 0.309671 0.188981
vt 0.312992 0.213625
vt 0.315042 0.233008
vt 0.632146 0.933891
vt 0.613219 0.963841
vt 0.594176 0.952527
vt 0.360943 0.903531
vt 0.392971 0.906207
vt 0.373080 0.918584
vt 0.403021 0.924476
vt 0.374412 0.950315
vt 0.299401 0.934005
vt 0.348408 0.924685
vt 0.442401 0.913746
vt 0.356506 0.883850
vt 0.291331 0.913269
vt 0.458832 0.947400
vt 0.644959 0.966570
vt 0.651656 0.948993
vt 0.728238 0.936556
vt 0.651517 0.887896
vt 0.600450 0.982365
vt 0.708196 0.965966
vt 0.334345 0.275318
vt 0.427072 0.244535
vt 0.415549 0.541532
vt 0.455661 0.549782
vt 0.505762 0.554598
vt 0.477550 0.532152
vt 0.459516 0.520328
vt 0.685307 0.126086
vt 0.887178 0.161210
vt 0.355949 0.728031
vt 0.326349 0.810623
vt 0.313254 0.320968
vt 0.861354 0.370874
vt 0.864732 0.352830
vt 0.974272 0.356381
vt 0.319041 0.499014
vt 0.494628 0.523160
vt 0.476951 0.501454
vt 0.323784 0.352087
vt 0.308421 0.477737
vt 0.365236 0.325125
vt 0.362729 0.292201
vt 0.506348 0.410430
vt 0.380443 0.410198
vt 0.331139 0.402547
vt 0.365324 0.446958
vt 0.363478 0.420441
vt 0.381999 0.426446
vt 0.421071 0.443552
vt 0.767122 0.415621
vt 0.672809 0.447491
vt 0.886790 0.434114
vt 0.571771 0.303996
vt 0.498417 0.266328
vt 0.498740 0.320615
vt 0.706619 0.370023
vt 0.845946 0.668378
vt 0.966367 0.677522
vt 0.132205 0.162582
vt 0.178617 0.901572
vt 0.236179 0.933523
vt 0.844879 0.643031
vt 0.726088 0.648041
vt 0.739924 0.648143
vt 0.959622 0.775504
vt 0.127110 0.661360
vt 0.155761 0.493970
vt 0.268704 0.555665
vt 0.252031 0.378279
vt 0.169028 0.364990
vt 0.638065 0.501834
vt 0.851364 0.331032
vt 0.967042 0.318119
vt 0.408951 0.164070
vt 0.533662 0.943705
vt 0.591224 0.911753
vt 0.851383 0.356292
vt 0.733931 0.354995
vt 0.747704 0.354543
vt 0.960338 0.225667
vt 0.410299 0.661359
vt 0.381648 0.493970
vt 0.285616 0.378430
vt 0.367984 0.359285
vn 0.2913 -0.9224 -0.2538
vn 0.5544 -0.8323 -0.0054
vn 0.2451 -0.9428 0.2258
vn 0.2476 -0.9420 0.2264
vn 0.2479 -0.9420 0.2264
vn 0.4806 -0.0413 -0.8760
vn 0.5641 0.3630 -0.7416
vn 0.2077 0.0104 0.9781
vn 0.9196 0.1459 0.3648
vn 0.9766 -0.2139 0.0240
vn 0.4086 0.9126 0.0128
vn 0.5515 0.7603 0.3432
vn 0.6529 0.6608 0.3703
vn 0.6075 0.6194 0.4972
vn 0.5328 0.8462 -0.0049
vn 0.9065 0.4079 0.1094
vn 0.7266 0.5761 0.3744
vn 0.7661 0.6276 0.1385
vn 0.8746 0.4841 0.0267
vn 0.8948 0.3837 -0.2282
vn 0.7020 -0.5834 0.4085
vn 0.7309 -0.2978 0.6141
vn 0.5921 -0.7734 0.2265
vn 0.6529 -0.7375 -0.1726
vn 0.9004 -0.1792 -0.3964
vn 0.6583 -0.7492 0.0728
vn -0.4842 -0.8086 0.3343
vn -0.4308 -0.8920 -0.1372
vn 0.9993 -0.0213 -0.0295
vn -0.8736 -0.1525 0.4621
vn -0.7611 -0.3313 -0.5576
vn 0.6027 -0.3637 -0.7102
vn 0.4183 -0.4492 0.7895
vn 0.1719 -0.0258 0.9848
vn -0.7511 -0.1580 -0.6410
vn 0.1361 -0.0005 -0.9907
vn -0.7122 -0.2670 0.6492
vn -0.9026 -0.0651 -0.4255
vn -0.9096 -0.0507 0.4124
vn 0.9553 0.2208 -0.1964
vn 0.8466 -0.0084 0.5321
vn -0.1098 0.3574 0.9275
vn 0.5507 -0.8324 0.0615
vn 0.8673 -0.0401 -0.4961
vn 0.3532 0.9210 0.1643
vn 0.1364 0.9854 0.1023
vn 0.3276 0.8218 0.4662
vn 0.0441 0.9202 0.3890
vn 0.1257 -0.1041 0.9866
vn 0.0680 0.4446 -0.8932
vn -0.0217 0.4736 -0.8805
vn 0.0339 -0.5632 -0.8256
vn 0.4975 -0.0395 -0.8665
vn 0.1805 -0.9829 0.0352
vn -0.0096 -0.9927 0.1199
vn 0.1875 -0.8592 -0.4760
vn -0.0568 -0.4876 -0.8712
vn 0.1087 -0.1836 -0.9770
vn -0.0007 0.9649 -0.2625
vn 0.1725 0.9716 0.1621
vn 0.3656 0.2985 -0.8816
vn 0.2077 -0.0336 -0.9776
vn 0.3566 0.8369 -0.4153
vn -0.0428 0.9704 0.2378
vn 0.7652 0.4717 -0.4382
vn 0.8541 0.3899 -0.3441
vn 0.8098 -0.3914 -0.4370
vn -0.6167 0.2183 -0.7563
vn -0.7883 0.3978 0.4694
vn 0.2447 -0.9430 0.2256
vn 0.2277 -0.9392 -0.2570
vn 0.1724 -0.9390 -0.2977
vn 0.4785 -0.1215 0.8696
vn 0.3714 0.4437 0.8156
vn -0.0122 0.6119 0.7908
vn 0.4834 -0.3441 0.8049
vn -0.2913 -0.9224 -0.2538
vn -0.2450 -0.9429 0.2258
vn -0.2479 -0.9420 0.2264
vn -0.2476 -0.9420 0.2264
vn -0.5544 -0.8323 -0.0054
vn -0.5641 0.3630 -0.7416
vn -0.4806 -0.0413 -0.8760
vn -0.2077 0.0104 0.9781
vn -0.9196 0.1459 0.3648
vn -0.9766 -0.2139 0.0240
vn -0.4086 0.9126 0.0128
vn -0.6529 0.6608 0.3703
vn -0.5515 0.7603 0.3432
vn -0.6075 0.6194 0.4972
vn -0.5328 0.8462 -0.0049
vn -0.9065 0.4079 0.1094
vn -0.7266 0.5761 0.3744
vn -0.7661 0.6276 0.1385
vn -0.8746 0.4841 0.0267
vn -0.8948 0.3837 -0.2282
vn -0.7020 -0.5834 0.4085
vn -0.7309 -0.2978 0.6141
vn -0.5921 -0.7734 0.2265
vn -0.6529 -0.7375 -0.1726
vn -0.9004 -0.1792 -0.3964
vn -0.6583 -0.7492 0.0728
vn 0.4308 -0.8920 -0.1372
vn 0.4842 -0.8086 0.3343
vn -0.9993 -0.0213 -0.0295
vn 0.8736 -0.1525 0.4621
vn 0.7611 -0.3313 -0.5576
vn -0.6027 -0.3637 -0.7102
vn -0.1719 -0.0258 0.9848
vn -0.4183 -0.4492 0.7895
vn 0.7511 -0.1580 -0.6410
vn -0.1361 -0.0005 -0.9907
vn 0.7122 -0.2670 0.6492
vn 0.9026 -0.0651 -0.4255
vn 0.9096 -0.0507 0.4124
vn -0.9553 0.2208 -0.1964
vn -0.8466 -0.0084 0.5321
vn 0.1098 0.3574 0.9275
vn -0.5507 -0.8324 0.0615
vn -0.8673 -0.0401 -0.4961
vn -0.3532 0.9210 0.1643
vn -0.1364 0.9854 0.1023
vn -0.3276 0.8218 0.4662
vn -0.0441 0.9202 0.3890
vn -0.1257 -0.1041 0.9866
vn -0.0680 0.4446 -0.8932
vn 0.0217 0.4736 -0.8805
vn -0.0339 -0.5632 -0.8256
vn -0.4975 -0.0395 -0.8665
vn -0.1805 -0.9829 0.0352
vn 0.0096 -0.9927 0.1199
vn -0.1875 -0.8592 -0.4760
vn 0.0568 -0.4876 -0.8712
vn -0.1087 -0.1836 -0.9770
vn 0.0000 0.5732 0.8194
vn -0.3656 0.2985 -0.8816
vn -0.2077 -0.0336 -0.9776
vn -0.1725 0.9716 0.1621
vn 0.0007 0.9649 -0.2625
vn -0.3566 0.8369 -0.4153
vn 0.0428 0.9704 0.2378
vn -0.7652 0.4717 -0.4382
vn -0.8541 0.3899 -0.3441
vn -0.8098 -0.3914 -0.4370
vn 0.6167 0.2183 -0.7563
vn 0.7883 0.3978 0.4694
vn -0.2447 -0.9430 0.2256
vn -0.2277 -0.9392 -0.2570
vn -0.1724 -0.9390 -0.2977
vn -0.4785 -0.1215 0.8696
vn -0.3714 0.4437 0.8156
vn 0.0122 0.6119 0.7908
vn -0.4834 -0.3441 0.8049
vn 0.5933 -0.3110 -0.7425
vn 0.9384 0.2096 -0.2747
vn 0.9650 -0.2015 0.1677
vn 0.8878 0.1063 0.4478
vn 0.9942 0.0105 0.1066
vn 0.8590 -0.5083 0.0612
vn 0.7015 0.6498 -0.2927
vn 0.8449 0.4383 -0.3067
vn 0.9011 -0.4217 0.1009
vn 0.8013 -0.5664 0.1929
vn 0.7362 -0.1720 0.6546
vn 0.3794 -0.9100 -0.1670
vn -0.0677 -0.9831 -0.1703
vn 0.5504 -0.7458 -0.3754
vn 0.9649 0.0101 -0.2626
vn 0.7911 -0.4924 0.3629
vn -0.8246 -0.0849 0.5593
vn -0.9320 -0.1315 -0.3378
vn -0.0795 -0.1796 -0.9805
vn 0.9724 -0.0575 0.2261
vn 0.9888 -0.1167 0.0934
vn 0.8376 0.0766 -0.5409
vn 0.1613 0.0171 -0.9868
vn 0.2044 -0.1639 0.9651
vn 0.0245 -0.3282 0.9443
vn 0.9695 0.2415 -0.0418
vn 0.9681 -0.2465 -0.0455
vn 0.9820 0.0272 0.1871
vn 0.1760 -0.9370 -0.3017
vn -0.1465 -0.9836 -0.1053
vn 0.1256 -0.8368 0.5328
vn -0.8938 0.1647 -0.4172
vn -0.0928 0.9820 0.1645
vn 0.1398 0.9896 0.0330
vn 0.6692 0.4570 -0.5860
vn -0.0481 -0.2325 0.9714
vn 0.2991 -0.8109 -0.5029
vn -0.4335 -0.3388 -0.8351
vn 0.2805 -0.2979 -0.9125
vn 0.2383 0.4393 0.8661
vn 0.4543 0.5579 0.6945
vn 0.5042 0.5473 0.6680
vn 0.5105 0.7663 -0.3901
vn -0.0809 0.9621 0.2604
vn 0.2792 0.9602 -0.0019
vn 0.6215 0.7155 -0.3191
vn 0.6256 0.7793 -0.0353
vn 0.5531 0.0455 -0.8318
vn -0.7557 0.5924 -0.2793
vn 0.2316 0.4237 0.8757
vn 0.5839 -0.1039 0.8052
vn -0.0404 -0.9242 0.3797
vn 0.4897 -0.2994 0.8189
vn -0.5933 -0.3110 -0.7425
vn -0.9384 0.2096 -0.2747
vn -0.9650 -0.2015 0.1677
vn -0.9942 0.0105 0.1066
vn -0.8878 0.1063 0.4478
vn -0.8590 -0.5083 0.0612
vn -0.7015 0.6498 -0.2927
vn -0.8449 0.4383 -0.3067
vn -0.9011 -0.4217 0.1009
vn -0.8013 -0.5664 0.1929
vn -0.7362 -0.1720 0.6546
vn -0.3794 -0.9100 -0.1670
vn 0.0677 -0.9831 -0.1703
vn -0.5504 -0.7458 -0.3754
vn -0.9649 0.0101 -0.2626
vn -0.7911 -0.4924 0.3629
vn 0.8246 -0.0849 0.5593
vn 0.9320 -0.1315 -0.3378
vn 0.0795 -0.1796 -0.9805
vn -0.9724 -0.0575 0.2261
vn -0.9888 -0.1167 0.0934
vn -0.8376 0.0766 -0.5409
vn -0.1613 0.0171 -0.9868
vn -0.2044 -0.1639 0.9651
vn -0.0245 -0.3282 0.9443
vn -0.9695 0.2415 -0.0418
vn -0.9820 0.0272 0.1871
vn -0.9681 -0.2465 -0.0455
vn -0.1760 -0.9370 -0.3017
vn 0.1465 -0.9836 -0.1053
vn -0.1256 -0.8368 0.5328
vn 0.8938 0.1647 -0.4172
vn 0.0928 0.9820 0.1645
vn -0.1398 0.9896 0.0330
vn 0.0000 0.0636 0.9980
vn -0.6692 0.4570 -0.5860
vn 0.0481 -0.2325 0.9714
vn -0.2991 -0.8109 -0.5029
vn 0.4335 -0.3388 -0.8351
vn -0.2805 -0.2979 -0.9125
vn -0.6871 -0.0574 0.7243
vn -0.5042 0.5473 0.6680
vn -0.2383 0.4393 0.8661
vn -0.5105 0.7663 -0.3901
vn 0.0809 0.9621 0.2604
vn -0.2792 0.9602 -0.0019
vn -0.6215 0.7155 -0.3191
vn -0.6256 0.7793 -0.0353
vn -0.5531 0.0455 -0.8318
vn 0.7557 0.5924 -0.2793
vn -0.2316 0.4237 0.8757
vn -0.5839 -0.1039 0.8052
vn 0.0404 -0.9242 0.3797
vn -0.4897 -0.2994 0.8189
usemtl Default_OBJ
s 1
f 1/1/1 2/2/1 3/3/1
f 4/4/2 3/3/2 2/2/2
f 5/5/3 3/3/4 4/4/5
f 6/6/6 7/7/6 8/8/6
f 7/7/7 9/9/7 8/8/7
f 10/10/8 11/11/8 12/12/8
f 12/12/9 13/13/9 10/10/9
f 14/14/10 13/13/10 2/2/10
f 15/15/11 16/16/11 17/17/11
f 18/18/12 16/16/12 19/19/12
f 15/15/13 19/19/13 16/16/13
f 20/20/14 10/10/14 21/21/14
f 18/18/15 19/19/15 21/21/15
f 14/14/16 16/16/16 18/18/16
f 10/10/17 22/22/17 21/21/17
f 21/21/18 22/22/18 18/18/18
f 14/14/19 18/18/19 22/22/19
f 8/8/20 16/16/20 14/14/20
f 23/23/21 24/24/21 25/25/21
f 17/26/22 24/24/22 26/27/22
f 25/25/23 27/28/23 23/23/23
f 23/23/24 27/28/24 28/29/24
f 29/30/25 23/23/25 28/29/25
f 30/31/26 31/32/26 32/33/26
f 33/34/27 34/35/27 35/36/27
f 36/37/28 33/34/28 35/36/28
f 12/38/29 37/39/29 13/40/29
f 35/36/30 34/35/30 38/41/30
f 36/37/31 35/36/31 5/42/31
f 36/37/32 4/43/32 37/39/32
f 12/38/33 34/35/33 33/34/33
f 34/35/34 12/38/34 11/44/34
f 39/45/35 40/46/35 41/47/35
f 8/48/36 30/31/36 40/46/36
f 39/45/37 32/33/37 1/49/37
f 40/46/38 39/45/38 42/50/38
f 1/49/39 42/50/39 39/45/39
f 23/23/40 29/30/40 43/51/40
f 26/27/41 24/24/41 44/52/41
f 45/53/42 44/54/42 46/55/42
f 44/54/43 47/56/43 46/55/43
f 46/55/44 47/56/44 48/57/44
f 49/58/45 19/19/45 50/59/45
f 19/19/46 49/58/46 21/21/46
f 21/21/47 49/58/47 20/20/47
f 15/15/48 50/59/48 19/19/48
f 26/60/49 51/61/49 17/62/49
f 29/30/50 52/63/50 53/64/50
f 54/65/51 53/64/51 52/63/51
f 6/6/52 40/66/52 55/67/52
f 7/7/53 6/6/53 56/68/53
f 57/69/54 25/25/54 56/70/54
f 25/25/55 57/69/55 27/28/55
f 28/29/56 27/28/56 57/69/56
f 52/63/57 28/29/57 57/69/57
f 28/29/58 52/63/58 29/30/58
f 48/57/59 58/71/59 45/53/59
f 46/55/60 48/57/60 45/53/60
f 59/72/61 58/71/61 47/56/61
f 48/57/62 47/56/62 58/71/62
f 53/64/63 54/65/63 60/73/63
f 61/74/64 54/75/64 62/76/64
f 43/51/65 53/64/65 58/77/65
f 59/78/66 43/51/66 58/77/66
f 45/79/67 60/80/67 63/81/67
f 61/82/68 64/83/68 60/80/68
f 61/82/69 62/84/69 65/85/69
f 5/86/3 66/87/70 3/88/4
f 3/88/71 66/87/71 1/89/71
f 55/90/72 1/89/72 66/87/72
f 11/11/73 10/10/73 67/91/73
f 68/92/74 10/10/74 20/20/74
f 20/20/75 49/58/75 68/92/75
f 68/93/76 69/94/76 67/91/76
f 70/95/77 71/96/77 72/97/77
f 73/98/78 74/99/79 71/96/80
f 74/99/81 72/97/81 71/96/81
f 75/100/82 76/101/82 77/102/82
f 78/103/83 76/101/83 75/100/83
f 79/104/84 80/105/84 81/106/84
f 80/105/85 79/104/85 82/107/85
f 83/108/86 72/97/86 82/107/86
f 84/109/87 85/110/87 86/111/87
f 84/109/88 86/111/88 87/112/88
f 88/113/89 87/112/89 86/111/89
f 89/114/90 90/115/90 79/104/90
f 88/113/91 90/115/91 87/112/91
f 83/108/92 88/113/92 86/111/92
f 79/104/93 90/115/93 91/116/93
f 90/115/94 88/113/94 91/116/94
f 83/108/95 91/116/95 88/113/95
f 76/101/96 83/108/96 86/111/96
f 92/117/97 93/118/97 94/119/97
f 85/120/98 95/121/98 94/119/98
f 93/118/99 92/117/99 96/122/99
f 92/117/100 97/123/100 96/122/100
f 98/124/101 97/123/101 92/117/101
f 99/125/102 100/126/102 101/127/102
f 102/128/103 103/129/103 104/130/103
f 104/130/104 103/129/104 105/131/104
f 80/132/105 82/133/105 106/134/105
f 103/129/106 107/135/106 105/131/106
f 102/128/107 73/136/107 103/129/107
f 102/128/108 106/134/108 74/137/108
f 105/131/109 81/138/109 80/132/109
f 80/132/110 104/130/110 105/131/110
f 108/139/111 109/140/111 110/141/111
f 76/142/112 110/141/112 99/125/112
f 108/139/113 70/143/113 100/126/113
f 110/141/114 111/144/114 108/139/114
f 70/143/115 108/139/115 111/144/115
f 92/117/116 112/145/116 98/124/116
f 95/121/117 113/146/117 94/119/117
f 114/147/118 115/148/118 113/149/118
f 116/150/119 113/149/119 115/148/119
f 115/148/120 117/151/120 116/150/120
f 49/152/121 50/153/121 87/112/121
f 87/112/122 90/115/122 49/152/122
f 90/115/123 89/114/123 49/152/123
f 84/109/124 87/112/124 50/153/124
f 95/154/125 85/155/125 51/61/125
f 98/124/126 118/156/126 52/63/126
f 54/65/127 52/63/127 118/156/127
f 78/103/128 55/157/128 110/158/128
f 75/100/129 56/159/129 78/103/129
f 57/69/130 56/70/130 93/118/130
f 93/118/131 96/122/131 57/69/131
f 97/123/132 57/69/132 96/122/132
f 52/63/133 57/69/133 97/123/133
f 97/123/134 98/124/134 52/63/134
f 119/160/135 95/154/135 26/60/135
f 120/161/136 116/150/136 121/162/136
f 117/151/137 121/162/137 116/150/137
f 115/148/138 114/147/138 117/151/138
f 117/151/139 114/147/139 121/162/139
f 118/156/140 122/163/140 54/65/140
f 123/164/141 119/160/141 54/75/141
f 112/145/142 121/165/142 118/156/142
f 120/166/143 121/165/143 112/145/143
f 114/167/144 124/168/144 122/169/144
f 123/170/145 122/169/145 125/171/145
f 123/170/146 126/172/146 119/173/146
f 71/174/80 66/87/147 73/175/78
f 71/174/148 70/176/148 66/87/148
f 55/90/149 66/87/149 70/176/149
f 81/106/150 127/177/150 79/104/150
f 68/178/151 89/114/151 79/104/151
f 89/114/152 68/178/152 49/152/152
f 68/179/153 127/177/153 69/180/153
f 40/66/154 6/6/154 8/8/154
f 8/8/155 14/14/155 128/181/155
f 2/2/156 128/181/156 14/14/156
f 10/10/157 13/13/157 22/22/157
f 14/14/158 22/22/158 13/13/158
f 4/4/159 2/2/159 13/13/159
f 16/16/160 9/9/160 17/17/160
f 9/9/161 16/16/161 8/8/161
f 7/7/162 25/182/162 9/9/162
f 9/183/163 25/25/163 24/24/163
f 24/24/164 17/26/164 9/183/164
f 30/31/165 32/33/165 41/47/165
f 32/33/166 39/45/166 41/47/166
f 37/39/167 33/34/167 36/37/167
f 37/39/168 4/43/168 13/40/168
f 33/34/169 37/39/169 12/38/169
f 11/44/170 38/41/170 34/35/170
f 35/36/171 38/41/171 5/42/171
f 4/43/172 36/37/172 5/42/172
f 31/32/173 128/184/173 2/185/173
f 128/184/174 31/32/174 30/31/174
f 8/48/175 128/184/175 30/31/175
f 41/47/176 40/46/176 30/31/176
f 32/33/177 31/32/177 1/49/177
f 2/185/178 1/49/178 31/32/178
f 43/51/179 44/52/179 23/23/179
f 44/52/180 43/51/180 59/78/180
f 24/24/181 23/23/181 44/52/181
f 44/54/182 59/72/182 47/56/182
f 1/1/183 55/67/183 42/186/183
f 38/187/184 11/11/184 69/94/184
f 5/188/185 38/187/185 69/94/185
f 50/59/186 15/15/186 51/189/186
f 17/17/187 51/189/187 15/15/187
f 43/51/188 29/30/188 53/64/188
f 67/91/189 69/94/189 11/11/189
f 40/66/190 42/186/190 55/67/190
f 55/67/191 56/68/191 6/6/191
f 7/7/192 56/68/192 25/182/192
f 62/76/193 44/190/193 45/191/193
f 26/60/194 62/76/194 129/192/194
f 62/76/195 26/60/195 44/190/195
f 65/85/196 63/81/196 64/83/196
f 129/192/197 62/76/197 54/75/197
f 60/73/198 54/65/198 61/193/198
f 58/77/199 53/64/199 60/73/199
f 45/194/200 58/77/200 60/73/200
f 64/83/201 63/81/201 60/80/201
f 65/85/202 64/83/202 61/82/202
f 45/79/203 63/81/203 62/84/203
f 65/85/204 62/84/204 63/81/204
f 69/195/205 66/87/205 5/86/205
f 67/91/206 10/10/206 68/92/206
f 110/158/207 76/101/207 78/103/207
f 76/101/208 130/196/208 83/108/208
f 72/97/209 83/108/209 130/196/209
f 83/108/210 82/107/210 91/116/210
f 79/104/211 91/116/211 82/107/211
f 74/99/212 82/107/212 72/97/212
f 86/111/213 85/110/213 77/102/213
f 77/102/214 76/101/214 86/111/214
f 75/100/215 77/102/215 93/197/215
f 77/198/216 94/119/216 93/118/216
f 94/119/217 77/198/217 85/120/217
f 99/125/218 109/140/218 100/126/218
f 100/126/219 109/140/219 108/139/219
f 106/134/220 102/128/220 104/130/220
f 106/134/221 82/133/221 74/137/221
f 104/130/222 80/132/222 106/134/222
f 81/138/223 105/131/223 107/135/223
f 103/129/224 73/136/224 107/135/224
f 74/137/225 73/136/225 102/128/225
f 101/127/226 72/199/226 130/200/226
f 130/200/227 99/125/227 101/127/227
f 76/142/228 99/125/228 130/200/228
f 109/140/229 99/125/229 110/141/229
f 100/126/230 70/143/230 101/127/230
f 72/199/231 101/127/231 70/143/231
f 112/145/232 92/117/232 113/146/232
f 94/119/233 113/146/233 92/117/233
f 113/146/234 120/166/234 112/145/234
f 113/149/235 116/150/235 120/161/235
f 70/95/236 111/201/236 55/157/236
f 107/202/237 69/180/237 81/106/237
f 73/203/238 69/180/238 107/202/238
f 50/153/239 51/204/239 84/109/239
f 85/110/240 84/109/240 51/204/240
f 51/61/241 26/60/241 95/154/241
f 112/145/242 118/156/242 98/124/242
f 127/177/243 81/106/243 69/180/243
f 110/158/244 55/157/244 111/201/244
f 55/157/245 78/103/245 56/159/245
f 93/197/246 56/159/246 75/100/246
f 129/192/247 119/160/247 26/60/247
f 119/160/248 113/205/248 95/154/248
f 119/160/249 114/206/249 113/205/249
f 126/172/250 125/171/250 124/168/250
f 54/75/251 119/160/251 129/192/251
f 123/207/252 54/65/252 122/163/252
f 121/165/253 122/163/253 118/156/253
f 114/208/254 122/163/254 121/165/254
f 125/171/255 122/169/255 124/168/255
f 126/172/256 123/170/256 125/171/256
f 114/167/257 119/173/257 124/168/257
f 126/172/258 124/168/258 119/173/258
f 69/195/259 73/175/259 66/87/259
f 127/177/260 68/178/260 79/104/260
